HIERARCHY
ROOT Hips
{
	OFFSET	0.00	0.00	0.00
	CHANNELS 6 Xposition Yposition Zposition Zrotation Xrotation Yrotation
	JOINT Spine
	{
		OFFSET	 0.00	0.01	 0.00
		CHANNELS 3 Zrotation Xrotation Yrotation
		JOINT Spine1
		{
			OFFSET	 0.00	 2.45913012437421	 0.00
			CHANNELS 3 Zrotation Xrotation Yrotation
            JOINT Neck
            {
                OFFSET	 0.00	 2.48462964506057	 0.00
                CHANNELS 3 Zrotation Xrotation Yrotation
                JOINT Head
                {
                    OFFSET	 0.00	 0.927524780924562	 0.00
                    CHANNELS 3 Zrotation Xrotation Yrotation
                    End Site 
                    {
                        OFFSET	 0.00	 1.14999962169752	 0.00
                    }
                }
            }
			JOINT LeftShoulder
			{
				OFFSET	 0.00	 2.48462964506057	 0.00
				CHANNELS 3 Zrotation Xrotation Yrotation
				JOINT LeftUpArm
				{
					OFFSET	 0.00	 1.24881979654096	 0.00
					CHANNELS 3 Zrotation Xrotation Yrotation
					JOINT LeftForeArm
					{
						OFFSET	 0.00	2.59758046908119	 0.00
						CHANNELS 3 Zrotation Xrotation Yrotation
						JOINT LeftHand
						{
							OFFSET	 0.00	2.45542024364365	 0.00
							CHANNELS 3 Zrotation Xrotation Yrotation
							JOINT LeftHandThumb 
							{
								OFFSET	 0.00	0.00	 0.00
								CHANNELS 3 Zrotation Xrotation Yrotation
								End Site
								{
									OFFSET	 0.00	0.00	1.00000003353624
								}
							}
							JOINT L_Wrist_End 
							{
								OFFSET	 0.00	0.99999967115358	 0.00
								CHANNELS 3 Zrotation Xrotation Yrotation
								End Site 
								{
									OFFSET	 0.00	 0.00	 0.00
								}
							}
						}
					}
				}
			}
			JOINT RightShoulder
			{
				OFFSET	 0.00	 2.48462964506057	 0.00
				CHANNELS 3 Zrotation Xrotation Yrotation
				JOINT RightUpArm
				{
					OFFSET	 0.00	 1.24881979654096	 0.00
					CHANNELS 3 Zrotation Xrotation Yrotation
					JOINT RightForeArm
					{
						OFFSET	 0.00	2.59758046908119	 0.00
						CHANNELS 3 Zrotation Xrotation Yrotation
						JOINT RightHand
						{
							OFFSET	 0.00	2.45542024364365	 0.00
							CHANNELS 3 Zrotation Xrotation Yrotation
							JOINT RightHandThumb 
							{
								OFFSET	 0.00	0.00	 0.00
								CHANNELS 3 Zrotation Xrotation Yrotation
								End Site
								{
									OFFSET	 0.00	0.00	1.00000003353624
								}
							}
							JOINT R_Wrist_End 
							{
								OFFSET	 0.00	0.99999967115358	 0.00
								CHANNELS 3 Zrotation Xrotation Yrotation
								End Site 
								{
									OFFSET	 0.00	 0.00	 0.00
								}
							}
						}
					}
				}
			}
		}
	}
	JOINT LeftUpLeg
	{
		OFFSET	 1.2719394002717	 0.00	 0.00
		CHANNELS 3 Zrotation Xrotation Yrotation
		JOINT LeftLowLeg
		{
			OFFSET	 0.00	-4.3429100912261	 0.00
			CHANNELS 3 Zrotation Xrotation Yrotation
			JOINT LeftFoot
			{
				OFFSET	 0.00	-4.48767017425826	 0.00
				CHANNELS 3 Zrotation Xrotation Yrotation
				JOINT LeftToeBase
                {
                    OFFSET	 0.00	0.00	 1.51507020887566
                    CHANNELS 3 Zrotation Xrotation Yrotation
                    End Site 
                    {
                        OFFSET	 0.00	0.00	 0.75000010571191
                    }
                }
			}
		}
	}
	JOINT RightUpLeg
	{
		OFFSET	 -1.2719393604653	 0.00	 0.00
		CHANNELS 3 Zrotation Xrotation Yrotation
		JOINT RightLowLeg
		{
			OFFSET	 0.00	-4.3429100912261	 0.00
			CHANNELS 3 Zrotation Xrotation Yrotation
			JOINT RightFoot
			{
				OFFSET	 0.00	-4.48767017425826	 0.00
				CHANNELS 3 Zrotation Xrotation Yrotation
				JOINT RightToeBase
                {
                    OFFSET	 0.00	0.00	 1.51507020887566
                    CHANNELS 3 Zrotation Xrotation Yrotation
                    End Site 
                    {
                        OFFSET	 0.00	0.00	 0.749999965609858
                    }
                }   
			}
		}
	}
}
MOTION 
Frames:	13 
Frame Time: 0.02 
 3.1504901123046873 1.6891000366210938 9.839509887695312 -143.88 84.1787 145.962 2.14114 -6.26335 -1.45009 -0.137408 5.98594 -1.69147 -0.871799 31.2562 2.40059 13.6558 -53.4553 9.34577 -91.61726 -11.5378 -2.5473 -15.657 -1.50631 -32.6357 0.0 20.9877 0.0 27.7962 -7.52519 18.4933 0.0 0.0 0.0 0.0 0.0 0.0 99.49164 -10.537 -0.648811 11.1892 -1.27514 36.7853 0.0 18.7778 0.0 -16.9982 -1.82513 -22.3694 0.0 0.0 0.0 0.0 0.0 0.0 3.21049 -2.66545 3.07102 0.0 7.06862 0.0 10.6587 7.24954 -1.81373 0.0 -37.0393 0.0 3.71121 -1.88599 7.37929 0.0 7.56187 0.0 9.46414 9.43322 -6.99183 0.0 -28.1139 0.0 
  3.1492300415039063 1.6909199523925782 9.839340209960938 -144.022 84.1582 146.189 2.14235 -6.28804 -1.41734 -0.153012 5.98023 -1.65864 -0.767131 31.1528 2.22112 13.6072 -53.3493 9.16803 -91.5869 -11.4385 -2.52 -15.7572 -1.52436 -32.6438 0.0 20.9635 0.0 27.8383 -7.61591 18.8454 0.0 0.0 0.0 0.0 0.0 0.0 99.462036 -10.5569 -0.637092 11.3048 -1.36051 36.776 0.0 18.7777 0.0 -17.0334 -1.90527 -22.2678 0.0 0.0 0.0 0.0 0.0 0.0 3.21355 -2.72468 3.03414 0.0 7.07499 0.0 10.6753 7.25819 -1.84551 0.0 -37.045403 0.0 3.71285 -1.90361 7.3233 0.0 7.54054 0.0 9.47815 9.43227 -7.00403 0.0 -28.1147 0.0 
  3.148009948730469 1.6926699829101564 9.839749755859375 -144.256 84.1256 146.517 2.17729 -6.27693 -1.43537 -0.244361 5.86027 -1.68422 -0.733637 31.2354 2.20252 13.6799 -53.3478 9.19054 -91.58639 -11.4398 -2.47511 -15.7492 -1.56125 -32.4976 0.0 20.9846 0.0 28.0114 -7.92649 19.1205 0.0 0.0 0.0 0.0 0.0 0.0 99.49404 -10.4683 -0.68918 11.3621 -1.44738 36.7863 0.0 18.7415 0.0 -17.0437 -1.9079 -22.2487 0.0 0.0 0.0 0.0 0.0 0.0 3.21641 -2.79848 3.02145 0.0 7.07204 0.0 10.6982 7.28427 -1.91224 0.0 -37.0633 0.0 3.71473 -1.92557 7.28312 0.0 7.50022 0.0 9.48485 9.43709 -7.05181 0.0 -28.1059 0.0 
  3.1469900512695315 1.6936900329589843 9.84010009765625 -144.522 84.0958 146.872 2.20801 -6.30983 -1.40675 -0.327177 5.81724 -1.6615 -0.664453 31.2928 2.13061 13.7373 -53.3197 9.18122 -91.56036 -11.381 -2.44406 -15.7797 -1.44818 -32.7315 0.0 20.824 0.0 28.2356 -8.15454 19.3753 0.0 0.0 0.0 0.0 0.0 0.0 99.51349 -10.4858 -0.673672 11.448 -1.4724 37.0097 0.0 18.6745 0.0 -16.9708 -1.78651 -22.451 0.0 0.0 0.0 0.0 0.0 0.0 3.21432 -2.84928 3.01135 0.0 7.03653 0.0 10.6863 7.31791 -1.99475 0.0 -37.083 0.0 3.71099 -1.93491 7.25285 0.0 7.44648 0.0 9.49968 9.4376 -7.1008 0.0 -28.0772 0.0 
  3.1460699462890624 1.6947500610351562 9.840130004882813 -144.749 84.0581 147.19 2.17218 -6.38589 -1.39887 -0.26236 5.8671 -1.64631 -0.636074 31.2798 2.06318 13.6797 -53.3012 9.12295 -91.60402 -11.3537 -2.48487 -15.8198 -1.35301 -32.8286 0.0 20.7248 0.0 28.4457 -8.35229 19.4765 0.0 0.0 0.0 0.0 0.0 0.0 99.45736 -10.5493 -0.651754 11.5248 -1.42995 37.088 0.0 18.6579 0.0 -16.9796 -1.80364 -22.4958 0.0 0.0 0.0 0.0 0.0 0.0 3.21639 -2.89501 2.97772 0.0 6.98352 0.0 10.6948 7.35443 -2.04609 0.0 -37.1036 0.0 3.71071 -1.944 7.17189 0.0 7.38323 0.0 9.50117 9.45071 -7.11456 0.0 -28.0738 0.0 
  3.1451800537109373 1.6955799865722656 9.840230102539062 -144.868 84.0391 147.394 2.17172 -6.40561 -1.40141 -0.269981 5.84275 -1.6489 -0.629668 31.32 2.06957 13.7153 -53.299 9.13895 -91.59558 -11.3568 -2.506 -15.8583 -1.2911 -32.8908 0.0 20.6681 0.0 28.4633 -8.50608 19.5572 0.0 0.0 0.0 0.0 0.0 0.0 99.45518 -10.578 -0.665157 11.5488 -1.40913 37.0491 0.0 18.6524 0.0 -16.9608 -1.78588 -22.5048 0.0 0.0 0.0 0.0 0.0 0.0 3.21873 -2.92805 2.96045 0.0 6.9544 0.0 10.7226 7.37599 -2.10231 0.0 -37.115402 0.0 3.71145 -1.93575 7.08108 0.0 7.32873 0.0 9.48689 9.458031 -7.12791 0.0 -28.0694 0.0 
  3.14427001953125 1.696510009765625 9.84031982421875 -144.822 84.0412 147.413 2.14309 -6.39774 -1.42728 -0.218575 5.82611 -1.66963 -0.661532 31.3473 2.11849 13.7109 -53.2929 9.15791 -91.64404 -11.4174 -2.52388 -15.8415 -1.25091 -32.8674 0.0 20.6641 0.0 28.3836 -8.53675 19.5691 0.0 0.0 0.0 0.0 0.0 0.0 99.43864 -10.5579 -0.692129 11.5479 -1.37374 37.0419 0.0 18.653 0.0 -16.9229 -1.81976 -22.5269 0.0 0.0 0.0 0.0 0.0 0.0 3.22328 -2.94459 2.93691 0.0 6.95379 0.0 10.7238 7.3843 -2.13177 0.0 -37.122 0.0 3.72274 -1.92519 7.01423 0.0 7.31845 0.0 9.45328 9.45668 -7.15438 0.0 -28.0724 0.0 
  3.1435101318359373 1.6977099609375 9.8402197265625 -144.604 84.0665 147.258 2.17545 -6.3544 -1.40843 -0.277223 5.79597 -1.65699 -0.611854 31.3756 2.08336 13.7729 -53.2954 9.19862 -91.63615 -11.3786 -2.52072 -15.8184 -1.26044 -32.8331 0.0 20.6921 0.0 28.3223 -8.49039 19.5514 0.0 0.0 0.0 0.0 0.0 0.0 99.47093 -10.5609 -0.706912 11.5467 -1.40245 36.9961 0.0 18.6475 0.0 -16.8049 -1.74132 -22.4782 0.0 0.0 0.0 0.0 0.0 0.0 3.22891 -2.95713 2.89306 0.0 7.0046 0.0 10.7189 7.37278 -2.13342 0.0 -37.1273 0.0 3.73612 -1.90791 6.9133 0.0 7.34511 0.0 9.41748 9.45146 -7.149 0.0 -28.0576 0.0 
  3.142770080566406 1.6986799621582032 9.840460205078125 -144.251 84.1021 146.962 2.18827 -6.36639 -1.41659 -0.29436 5.89202 -1.66741 -0.578442 31.3712 2.06969 13.8164 -53.3126 9.26223 -91.6234 -11.3581 -2.54074 -15.8541 -1.30469 -32.8972 0.0 20.7663 0.0 28.2797 -8.46485 19.4111 0.0 0.0 0.0 0.0 0.0 0.0 99.48951 -10.4845 -0.700796 11.5649 -1.45138 37.0229 0.0 18.6964 0.0 -16.8067 -1.78847 -22.4347 0.0 0.0 0.0 0.0 0.0 0.0 3.23915 -2.94879 2.83143 0.0 7.04861 0.0 10.7217 7.37351 -2.11598 0.0 -37.1369 0.0 3.75236 -1.87412 6.82718 0.0 7.37145 0.0 9.39632 9.45821 -7.1408 0.0 -28.0503 0.0 
  3.142449951171875 1.6994999694824218 9.840269775390626 -143.959 84.1282 146.723 2.1246 -6.38731 -1.37952 -0.14879 6.01932 -1.61699 -0.545417 31.2626 1.99444 13.7628 -53.2833 9.18255 -91.69844 -11.2745 -2.5961 -15.8827 -1.29017 -32.9489 0.0 20.8338 0.0 28.1692 -8.41737 19.1086 0.0 0.0 0.0 0.0 0.0 0.0 99.41394 -10.5792 -0.630453 11.6062 -1.43684 37.0602 0.0 18.6899 0.0 -16.8388 -1.72433 -22.3694 0.0 0.0 0.0 0.0 0.0 0.0 3.24791 -2.94933 2.79679 0.0 7.09454 0.0 10.7268 7.35344 -2.11538 0.0 -37.1282 0.0 3.76797 -1.84278 6.82443 0.0 7.38607 0.0 9.42813 9.441401 -7.18555 0.0 -28.0418 0.0 
  3.142340087890625 1.6994900512695312 9.840759887695313 -143.68 84.1588 146.497 2.19868 -6.30515 -1.39619 -0.289907 5.87425 -1.6489 -0.47999 31.4379 1.99107 13.9089 -53.3283 9.34781 -91.64946 -11.298 -2.47923 -15.8567 -1.34649 -32.9262 0.0 20.9159 0.0 28.0672 -8.36199 18.8243 0.0 0.0 0.0 0.0 0.0 0.0 99.48773 -10.5064 -0.715732 11.5837 -1.43856 37.0386 0.0 18.6813 0.0 -16.8951 -1.78819 -22.4367 0.0 0.0 0.0 0.0 0.0 0.0 3.25145 -2.92247 2.75582 0.0 7.09901 0.0 10.7175 7.36603 -2.12131 0.0 -37.1174 0.0 3.7773 -1.79139 6.84274 0.0 7.37717 0.0 9.42889 9.4441395 -7.25838 0.0 -28.024101 0.0 
  3.1424200439453127 1.6993099975585937 9.840989990234375 -143.451 84.1969 146.318 2.19506 -6.30512 -1.3904 -0.286456 5.9084 -1.64228 -0.429717 31.4852 1.94372 13.9458 -53.3221 9.36837 -91.6272 -11.2875 -2.45107 -15.8886 -1.31207 -32.9303 0.0 20.9019 0.0 27.9347 -8.22038 18.6924 0.0 0.0 0.0 0.0 0.0 0.0 99.48837 -10.5147 -0.717592 11.5693 -1.43032 36.9454 0.0 18.6661 0.0 -16.8257 -1.72832 -22.3793 0.0 0.0 0.0 0.0 0.0 0.0 3.24761 -2.88813 2.76566 0.0 7.09931 0.0 10.7453 7.37418 -2.16537 0.0 -37.127098 0.0 3.77579 -1.73912 6.80825 0.0 7.37432 0.0 9.44086 9.44147 -7.28153 0.0 -28.043499 0.0 
  3.142040100097656 1.6933599853515624 9.840280151367187 -142.701 84.3262 145.758 2.1824 -6.3205 -1.44197 -0.322374 6.02187 -1.6926 -0.344819 31.5207 1.84319 13.9818 -53.2347 9.29969 -91.55049 -11.2413 -2.43288 -15.9278 -1.30957 -32.8393 0.0 20.9053 0.0 27.8395 -8.15916 18.5023 0.0 0.0 0.0 0.0 0.0 0.0 99.47128 -10.552 -0.746 11.611 -1.39467 36.9715 0.0 18.6741 0.0 -16.8135 -1.80603 -22.4978 0.0 0.0 0.0 0.0 0.0 0.0 3.23486 -2.72938 2.63493 0.0 7.07114 0.0 10.7471 7.37167 -2.22597 0.0 -37.1585 0.0 3.76139 -1.48977 6.52554 0.0 7.28294 0.0 9.3741 9.419109 -7.23557 0.0 -28.0489 0.0 
